<svg width="192" height="56" viewBox="0 0 192 56" fill="none" xmlns="http://www.w3.org/2000/svg">
<path d="M71.004 38.196C69.1747 38.196 67.4947 37.7667 65.964 36.908C64.4333 36.0493 63.22 34.864 62.324 33.352C61.428 31.8213 60.98 30.0947 60.98 28.172C60.98 26.268 61.428 24.56 62.324 23.048C63.22 21.5173 64.4333 20.3227 65.964 19.464C67.4947 18.6053 69.1747 18.176 71.004 18.176C72.852 18.176 74.532 18.6053 76.044 19.464C77.5747 20.3227 78.7787 21.5173 79.656 23.048C80.552 24.56 81 26.268 81 28.172C81 30.0947 80.552 31.8213 79.656 33.352C78.7787 34.864 77.5747 36.0493 76.044 36.908C74.5133 37.7667 72.8333 38.196 71.004 38.196ZM71.004 34.696C72.18 34.696 73.216 34.4347 74.112 33.912C75.008 33.3707 75.708 32.6053 76.212 31.616C76.716 30.6267 76.968 29.4787 76.968 28.172C76.968 26.8653 76.716 25.7267 76.212 24.756C75.708 23.7667 75.008 23.0107 74.112 22.488C73.216 21.9653 72.18 21.704 71.004 21.704C69.828 21.704 68.7827 21.9653 67.868 22.488C66.972 23.0107 66.272 23.7667 65.768 24.756C65.264 25.7267 65.012 26.8653 65.012 28.172C65.012 29.4787 65.264 30.6267 65.768 31.616C66.272 32.6053 66.972 33.3707 67.868 33.912C68.7827 34.4347 69.828 34.696 71.004 34.696ZM86.4364 24.756C86.9404 24.0093 87.631 23.4027 88.5084 22.936C89.4044 22.4693 90.4217 22.236 91.5604 22.236C92.8857 22.236 94.0804 22.5627 95.1444 23.216C96.227 23.8693 97.0764 24.8027 97.6924 26.016C98.327 27.2107 98.6444 28.6013 98.6444 30.188C98.6444 31.7747 98.327 33.184 97.6924 34.416C97.0764 35.6293 96.227 36.572 95.1444 37.244C94.0804 37.916 92.8857 38.252 91.5604 38.252C90.403 38.252 89.3857 38.028 88.5084 37.58C87.6497 37.1133 86.959 36.516 86.4364 35.788V38H82.5164V17.28H86.4364V24.756ZM94.6404 30.188C94.6404 29.2547 94.4444 28.452 94.0524 27.78C93.679 27.0893 93.175 26.5667 92.5404 26.212C91.9244 25.8573 91.2524 25.68 90.5244 25.68C89.815 25.68 89.143 25.8667 88.5084 26.24C87.8924 26.5947 87.3884 27.1173 86.9964 27.808C86.623 28.4987 86.4364 29.3107 86.4364 30.244C86.4364 31.1773 86.623 31.9893 86.9964 32.68C87.3884 33.3707 87.8924 33.9027 88.5084 34.276C89.143 34.6307 89.815 34.808 90.5244 34.808C91.2524 34.808 91.9244 34.6213 92.5404 34.248C93.175 33.8747 93.679 33.3427 94.0524 32.652C94.4444 31.9613 94.6404 31.14 94.6404 30.188ZM114.737 22.488V38H110.789V36.04C110.285 36.712 109.622 37.244 108.801 37.636C107.998 38.0093 107.121 38.196 106.169 38.196C104.956 38.196 103.882 37.944 102.949 37.44C102.016 36.9173 101.278 36.1613 100.737 35.172C100.214 34.164 99.9529 32.9693 99.9529 31.588V22.488H103.873V31.028C103.873 32.26 104.181 33.212 104.797 33.884C105.413 34.5373 106.253 34.864 107.317 34.864C108.4 34.864 109.249 34.5373 109.865 33.884C110.481 33.212 110.789 32.26 110.789 31.028V22.488H114.737ZM121.125 24.728C121.629 24.0187 122.319 23.4307 123.197 22.964C124.093 22.4787 125.11 22.236 126.249 22.236C127.574 22.236 128.769 22.5627 129.833 23.216C130.915 23.8693 131.765 24.8027 132.381 26.016C133.015 27.2107 133.333 28.6013 133.333 30.188C133.333 31.7747 133.015 33.184 132.381 34.416C131.765 35.6293 130.915 36.572 129.833 37.244C128.769 37.916 127.574 38.252 126.249 38.252C125.11 38.252 124.102 38.0187 123.225 37.552C122.366 37.0853 121.666 36.4973 121.125 35.788V45.392H117.205V22.488H121.125V24.728ZM129.329 30.188C129.329 29.2547 129.133 28.452 128.741 27.78C128.367 27.0893 127.863 26.5667 127.229 26.212C126.613 25.8573 125.941 25.68 125.213 25.68C124.503 25.68 123.831 25.8667 123.197 26.24C122.581 26.5947 122.077 27.1173 121.685 27.808C121.311 28.4987 121.125 29.3107 121.125 30.244C121.125 31.1773 121.311 31.9893 121.685 32.68C122.077 33.3707 122.581 33.9027 123.197 34.276C123.831 34.6307 124.503 34.808 125.213 34.808C125.941 34.808 126.613 34.6213 127.229 34.248C127.863 33.8747 128.367 33.3427 128.741 32.652C129.133 31.9613 129.329 31.14 129.329 30.188ZM149.201 29.908C149.201 30.468 149.164 30.972 149.089 31.42H137.749C137.843 32.54 138.235 33.4173 138.925 34.052C139.616 34.6867 140.465 35.004 141.473 35.004C142.929 35.004 143.965 34.3787 144.581 33.128H148.809C148.361 34.6213 147.503 35.8533 146.233 36.824C144.964 37.776 143.405 38.252 141.557 38.252C140.064 38.252 138.72 37.9253 137.525 37.272C136.349 36.6 135.425 35.6573 134.753 34.444C134.1 33.2307 133.773 31.8307 133.773 30.244C133.773 28.6387 134.1 27.2293 134.753 26.016C135.407 24.8027 136.321 23.8693 137.497 23.216C138.673 22.5627 140.027 22.236 141.557 22.236C143.032 22.236 144.348 22.5533 145.505 23.188C146.681 23.8227 147.587 24.728 148.221 25.904C148.875 27.0613 149.201 28.396 149.201 29.908ZM145.141 28.788C145.123 27.78 144.759 26.9773 144.049 26.38C143.34 25.764 142.472 25.456 141.445 25.456C140.475 25.456 139.653 25.7547 138.981 26.352C138.328 26.9307 137.927 27.7427 137.777 28.788H145.141ZM149.654 30.188C149.654 28.62 149.962 27.2293 150.578 26.016C151.213 24.8027 152.072 23.8693 153.154 23.216C154.237 22.5627 155.441 22.236 156.766 22.236C157.774 22.236 158.736 22.46 159.65 22.908C160.565 23.3373 161.293 23.916 161.834 24.644V17.28H165.81V38H161.834V35.704C161.349 36.4693 160.668 37.0853 159.79 37.552C158.913 38.0187 157.896 38.252 156.738 38.252C155.432 38.252 154.237 37.916 153.154 37.244C152.072 36.572 151.213 35.6293 150.578 34.416C149.962 33.184 149.654 31.7747 149.654 30.188ZM161.862 30.244C161.862 29.292 161.676 28.48 161.302 27.808C160.929 27.1173 160.425 26.5947 159.79 26.24C159.156 25.8667 158.474 25.68 157.746 25.68C157.018 25.68 156.346 25.8573 155.73 26.212C155.114 26.5667 154.61 27.0893 154.218 27.78C153.845 28.452 153.658 29.2547 153.658 30.188C153.658 31.1213 153.845 31.9427 154.218 32.652C154.61 33.3427 155.114 33.8747 155.73 34.248C156.365 34.6213 157.037 34.808 157.746 34.808C158.474 34.808 159.156 34.6307 159.79 34.276C160.425 33.9027 160.929 33.38 161.302 32.708C161.676 32.0173 161.862 31.196 161.862 30.244ZM170.227 20.64C169.536 20.64 168.958 20.4253 168.491 19.996C168.043 19.548 167.819 18.9973 167.819 18.344C167.819 17.6907 168.043 17.1493 168.491 16.72C168.958 16.272 169.536 16.048 170.227 16.048C170.918 16.048 171.487 16.272 171.935 16.72C172.402 17.1493 172.635 17.6907 172.635 18.344C172.635 18.9973 172.402 19.548 171.935 19.996C171.487 20.4253 170.918 20.64 170.227 20.64ZM172.159 22.488V38H168.239V22.488H172.159ZM173.624 30.188C173.624 28.62 173.932 27.2293 174.548 26.016C175.183 24.8027 176.032 23.8693 177.096 23.216C178.179 22.5627 179.383 22.236 180.708 22.236C181.865 22.236 182.873 22.4693 183.732 22.936C184.609 23.4027 185.309 23.9907 185.832 24.7V22.488H189.78V38H185.832V35.732C185.328 36.46 184.628 37.0667 183.732 37.552C182.855 38.0187 181.837 38.252 180.68 38.252C179.373 38.252 178.179 37.916 177.096 37.244C176.032 36.572 175.183 35.6293 174.548 34.416C173.932 33.184 173.624 31.7747 173.624 30.188ZM185.832 30.244C185.832 29.292 185.645 28.48 185.272 27.808C184.899 27.1173 184.395 26.5947 183.76 26.24C183.125 25.8667 182.444 25.68 181.716 25.68C180.988 25.68 180.316 25.8573 179.7 26.212C179.084 26.5667 178.58 27.0893 178.188 27.78C177.815 28.452 177.628 29.2547 177.628 30.188C177.628 31.1213 177.815 31.9427 178.188 32.652C178.58 33.3427 179.084 33.8747 179.7 34.248C180.335 34.6213 181.007 34.808 181.716 34.808C182.444 34.808 183.125 34.6307 183.76 34.276C184.395 33.9027 184.899 33.38 185.272 32.708C185.645 32.0173 185.832 31.196 185.832 30.244Z" fill="black" fill-opacity="0.8"/>
<path d="M25 55.4371C23.6523 55.4371 22.3046 55.0659 21.1253 54.391L3.90836 44.4357C1.48248 43.0184 0 40.4536 0 37.6527V17.7422C0 14.975 1.48248 12.3765 3.87466 10.9929L21.1253 1.03771C23.5175 -0.345902 26.4825 -0.345902 28.9084 1.03771L46.1253 10.9929C48.5175 12.3765 50 14.975 50 17.7422V37.6864C50 40.4536 48.5175 43.0521 46.1253 44.4357L28.9084 54.391C27.6954 55.0659 26.3814 55.4371 25 55.4371ZM25 2.69129C24.124 2.69129 23.248 2.92751 22.473 3.36622L5.22237 13.3552C3.63881 14.2663 2.69542 15.9537 2.69542 17.7422V37.6864C2.69542 39.5087 3.67251 41.1623 5.22237 42.0735L22.4394 52.0625C24.0229 52.9736 25.9434 52.9736 27.527 52.0625L44.7439 42.1072C46.2938 41.1961 47.2709 39.5425 47.2709 37.7202V17.7422C47.2709 15.9199 46.2938 14.2326 44.7439 13.3552L27.5606 3.36622C26.7857 2.92751 25.9097 2.69129 25 2.69129ZM25 46.393C24.2588 46.393 23.5512 46.1906 22.9111 45.8193L10.3774 38.5976C9.09704 37.8552 8.28841 36.4716 8.28841 34.953V20.4757C8.28841 18.9909 9.06334 17.6072 10.3774 16.8311L22.9111 9.60932C24.2251 8.8669 25.8086 8.8669 27.089 9.60932L39.589 16.8311C40.8693 17.5735 41.6779 18.9571 41.6779 20.4757V34.953C41.6779 36.4378 40.8693 37.8552 39.589 38.5976L27.0553 45.8193C26.4488 46.1906 25.7412 46.393 25 46.393ZM25 11.0604C24.6294 11.0604 24.2588 11.1617 23.9218 11.3641L11.3881 18.5859C10.7143 18.9909 10.31 19.6995 10.31 20.4757V34.953C10.31 35.7291 10.7143 36.4378 11.3881 36.8428L23.9218 44.0645C24.5957 44.4695 25.4043 44.4695 26.0782 44.0645L38.5782 36.8428C39.252 36.4378 39.6563 35.7291 39.6563 34.953V20.4757C39.6563 19.6995 39.252 18.9909 38.5782 18.5859L26.0782 11.3641C25.7749 11.1617 25.4043 11.0604 25 11.0604ZM25 37.214C24.6294 37.214 24.2588 37.1127 23.9218 36.944L17.5876 33.2319C16.9137 32.8607 16.5094 32.1183 16.5094 31.3758V24.0191C16.5094 23.2429 16.9137 22.5342 17.5876 22.163L23.9218 18.4847C24.5957 18.1134 25.4043 18.1134 26.0782 18.4847L32.4124 22.163C33.0863 22.5342 33.4906 23.2429 33.4906 24.0191V31.3758C33.4906 32.152 33.0863 32.8607 32.4124 33.2319L26.0782 36.9103C25.7412 37.1127 25.3706 37.214 25 37.214ZM25 19.5645C24.8652 19.5645 24.7305 19.5983 24.5957 19.6658L18.2615 23.3442C18.0256 23.4791 17.8571 23.7491 17.8571 24.0191V31.3758C17.8571 31.6458 18.0256 31.9158 18.2615 32.0845L24.5957 35.7629C24.8315 35.8979 25.1348 35.8979 25.4043 35.7629L31.7385 32.0845C31.9744 31.9495 32.1429 31.6458 32.1429 31.3758V24.0191C32.1429 23.7491 31.9744 23.4791 31.7385 23.3442L25.4043 19.6658C25.2695 19.5983 25.1348 19.5645 25 19.5645Z" fill="url(#paint0_linear_411_2)"/>
<defs>
<linearGradient id="paint0_linear_411_2" x1="0" y1="27.7069" x2="50.0135" y2="27.7069" gradientUnits="userSpaceOnUse">
<stop stop-color="#E168FD"/>
<stop offset="1" stop-color="#7B00FC"/>
</linearGradient>
</defs>
</svg>
