<svg xmlns="http://www.w3.org/2000/svg" xmlns:xlink="http://www.w3.org/1999/xlink" width="400" zoomAndPan="magnify" viewBox="0 0 300 74.999997" height="100" preserveAspectRatio="xMidYMid meet" version="1.0"><defs><clipPath id="id1"><path d="M 0 0.804688 L 67 0.804688 L 67 75 L 0 75 Z M 0 0.804688 " clip-rule="nonzero"/></clipPath><clipPath id="id2"><path d="M 33.453125 74.308594 C 31.667969 74.308594 29.882812 73.816406 28.320312 72.917969 L 5.515625 59.71875 C 2.300781 57.839844 0.339844 54.441406 0.339844 50.726562 L 0.339844 24.328125 C 0.339844 20.660156 2.300781 17.214844 5.46875 15.378906 L 28.320312 2.179688 C 31.488281 0.34375 35.417969 0.34375 38.628906 2.179688 L 61.4375 15.378906 C 64.605469 17.214844 66.566406 20.660156 66.566406 24.328125 L 66.566406 50.769531 C 66.566406 54.441406 64.605469 57.886719 61.4375 59.71875 L 38.628906 72.917969 C 37.023438 73.816406 35.28125 74.308594 33.453125 74.308594 Z M 33.453125 4.371094 C 32.292969 4.371094 31.132812 4.683594 30.105469 5.265625 L 7.253906 18.511719 C 5.15625 19.71875 3.910156 21.957031 3.910156 24.328125 L 3.910156 50.769531 C 3.910156 53.1875 5.203125 55.378906 7.253906 56.589844 L 30.0625 69.832031 C 32.160156 71.039062 34.703125 71.039062 36.800781 69.832031 L 59.605469 56.632812 C 61.660156 55.425781 62.953125 53.230469 62.953125 50.816406 L 62.953125 24.328125 C 62.953125 21.910156 61.660156 19.675781 59.605469 18.511719 L 36.84375 5.265625 C 35.820312 4.683594 34.65625 4.371094 33.453125 4.371094 Z M 33.453125 62.316406 C 32.472656 62.316406 31.535156 62.046875 30.6875 61.554688 L 14.085938 51.980469 C 12.386719 50.996094 11.316406 49.160156 11.316406 47.148438 L 11.316406 27.953125 C 11.316406 25.984375 12.34375 24.148438 14.085938 23.121094 L 30.6875 13.542969 C 32.425781 12.558594 34.523438 12.558594 36.21875 13.542969 L 52.777344 23.121094 C 54.472656 24.105469 55.542969 25.9375 55.542969 27.953125 L 55.542969 47.148438 C 55.542969 49.117188 54.472656 50.996094 52.777344 51.980469 L 36.175781 61.554688 C 35.371094 62.046875 34.433594 62.316406 33.453125 62.316406 Z M 33.453125 15.46875 C 32.960938 15.46875 32.472656 15.601562 32.023438 15.871094 L 15.421875 25.445312 C 14.53125 25.984375 13.996094 26.921875 13.996094 27.953125 L 13.996094 47.148438 C 13.996094 48.175781 14.53125 49.117188 15.421875 49.652344 L 32.023438 59.226562 C 32.917969 59.765625 33.988281 59.765625 34.882812 59.226562 L 51.4375 49.652344 C 52.332031 49.117188 52.867188 48.175781 52.867188 47.148438 L 52.867188 27.953125 C 52.867188 26.921875 52.332031 25.984375 51.4375 25.445312 L 34.882812 15.871094 C 34.480469 15.601562 33.988281 15.46875 33.453125 15.46875 Z M 33.453125 50.144531 C 32.960938 50.144531 32.472656 50.011719 32.023438 49.785156 L 23.632812 44.863281 C 22.742188 44.371094 22.207031 43.390625 22.207031 42.402344 L 22.207031 32.648438 C 22.207031 31.621094 22.742188 30.679688 23.632812 30.1875 L 32.023438 25.3125 C 32.917969 24.820312 33.988281 24.820312 34.882812 25.3125 L 43.273438 30.1875 C 44.164062 30.679688 44.699219 31.621094 44.699219 32.648438 L 44.699219 42.402344 C 44.699219 43.433594 44.164062 44.371094 43.273438 44.863281 L 34.882812 49.742188 C 34.433594 50.011719 33.945312 50.144531 33.453125 50.144531 Z M 33.453125 26.742188 C 33.273438 26.742188 33.097656 26.789062 32.917969 26.878906 L 24.527344 31.753906 C 24.214844 31.933594 23.992188 32.292969 23.992188 32.648438 L 23.992188 42.402344 C 23.992188 42.761719 24.214844 43.121094 24.527344 43.34375 L 32.917969 48.222656 C 33.230469 48.398438 33.632812 48.398438 33.988281 48.222656 L 42.378906 43.34375 C 42.691406 43.164062 42.914062 42.761719 42.914062 42.402344 L 42.914062 32.648438 C 42.914062 32.292969 42.691406 31.933594 42.378906 31.753906 L 33.988281 26.878906 C 33.808594 26.789062 33.632812 26.742188 33.453125 26.742188 Z M 33.453125 26.742188 " clip-rule="nonzero"/></clipPath><linearGradient x1="-0.00000000338804" gradientTransform="matrix(1.324603, 0, 0, 1.325893, 0.338113, 0.803268)" y1="27.707001" x2="50.000001" gradientUnits="userSpaceOnUse" y2="27.707001" id="id3"><stop stop-opacity="1" stop-color="rgb(88.198853%, 40.79895%, 99.198914%)" offset="0"/><stop stop-opacity="1" stop-color="rgb(88.043213%, 40.638733%, 99.197388%)" offset="0.0078125"/><stop stop-opacity="1" stop-color="rgb(87.730408%, 40.32135%, 99.194336%)" offset="0.015625"/><stop stop-opacity="1" stop-color="rgb(87.417603%, 40.002441%, 99.191284%)" offset="0.0234375"/><stop stop-opacity="1" stop-color="rgb(87.104797%, 39.683533%, 99.188232%)" offset="0.03125"/><stop stop-opacity="1" stop-color="rgb(86.793518%, 39.364624%, 99.185181%)" offset="0.0390625"/><stop stop-opacity="1" stop-color="rgb(86.480713%, 39.045715%, 99.182129%)" offset="0.046875"/><stop stop-opacity="1" stop-color="rgb(86.167908%, 38.726807%, 99.179077%)" offset="0.0546875"/><stop stop-opacity="1" stop-color="rgb(85.855103%, 38.407898%, 99.176025%)" offset="0.0625"/><stop stop-opacity="1" stop-color="rgb(85.543823%, 38.090515%, 99.172974%)" offset="0.0703125"/><stop stop-opacity="1" stop-color="rgb(85.231018%, 37.771606%, 99.169922%)" offset="0.078125"/><stop stop-opacity="1" stop-color="rgb(84.918213%, 37.452698%, 99.16687%)" offset="0.0859375"/><stop stop-opacity="1" stop-color="rgb(84.605408%, 37.133789%, 99.163818%)" offset="0.09375"/><stop stop-opacity="1" stop-color="rgb(84.294128%, 36.81488%, 99.160767%)" offset="0.101563"/><stop stop-opacity="1" stop-color="rgb(83.981323%, 36.495972%, 99.157715%)" offset="0.109375"/><stop stop-opacity="1" stop-color="rgb(83.668518%, 36.178589%, 99.154663%)" offset="0.117188"/><stop stop-opacity="1" stop-color="rgb(83.355713%, 35.85968%, 99.150085%)" offset="0.125"/><stop stop-opacity="1" stop-color="rgb(83.044434%, 35.540771%, 99.147034%)" offset="0.132812"/><stop stop-opacity="1" stop-color="rgb(82.731628%, 35.221863%, 99.143982%)" offset="0.140625"/><stop stop-opacity="1" stop-color="rgb(82.418823%, 34.902954%, 99.14093%)" offset="0.148437"/><stop stop-opacity="1" stop-color="rgb(82.106018%, 34.584045%, 99.137878%)" offset="0.15625"/><stop stop-opacity="1" stop-color="rgb(81.794739%, 34.266663%, 99.134827%)" offset="0.164062"/><stop stop-opacity="1" stop-color="rgb(81.481934%, 33.947754%, 99.131775%)" offset="0.171875"/><stop stop-opacity="1" stop-color="rgb(81.169128%, 33.628845%, 99.128723%)" offset="0.179687"/><stop stop-opacity="1" stop-color="rgb(80.856323%, 33.309937%, 99.125671%)" offset="0.1875"/><stop stop-opacity="1" stop-color="rgb(80.545044%, 32.991028%, 99.12262%)" offset="0.195312"/><stop stop-opacity="1" stop-color="rgb(80.232239%, 32.672119%, 99.119568%)" offset="0.203125"/><stop stop-opacity="1" stop-color="rgb(79.919434%, 32.354736%, 99.116516%)" offset="0.210937"/><stop stop-opacity="1" stop-color="rgb(79.606628%, 32.035828%, 99.113464%)" offset="0.21875"/><stop stop-opacity="1" stop-color="rgb(79.295349%, 31.716919%, 99.110413%)" offset="0.226562"/><stop stop-opacity="1" stop-color="rgb(78.982544%, 31.39801%, 99.107361%)" offset="0.234375"/><stop stop-opacity="1" stop-color="rgb(78.669739%, 31.079102%, 99.104309%)" offset="0.242187"/><stop stop-opacity="1" stop-color="rgb(78.356934%, 30.760193%, 99.101257%)" offset="0.25"/><stop stop-opacity="1" stop-color="rgb(78.045654%, 30.44281%, 99.098206%)" offset="0.257813"/><stop stop-opacity="1" stop-color="rgb(77.732849%, 30.123901%, 99.095154%)" offset="0.265625"/><stop stop-opacity="1" stop-color="rgb(77.420044%, 29.804993%, 99.092102%)" offset="0.273438"/><stop stop-opacity="1" stop-color="rgb(77.108765%, 29.486084%, 99.08905%)" offset="0.28125"/><stop stop-opacity="1" stop-color="rgb(76.795959%, 29.167175%, 99.084473%)" offset="0.289062"/><stop stop-opacity="1" stop-color="rgb(76.483154%, 28.848267%, 99.081421%)" offset="0.296875"/><stop stop-opacity="1" stop-color="rgb(76.170349%, 28.530884%, 99.078369%)" offset="0.304688"/><stop stop-opacity="1" stop-color="rgb(75.85907%, 28.211975%, 99.075317%)" offset="0.3125"/><stop stop-opacity="1" stop-color="rgb(75.546265%, 27.893066%, 99.072266%)" offset="0.320312"/><stop stop-opacity="1" stop-color="rgb(75.233459%, 27.574158%, 99.069214%)" offset="0.328125"/><stop stop-opacity="1" stop-color="rgb(74.920654%, 27.255249%, 99.066162%)" offset="0.335938"/><stop stop-opacity="1" stop-color="rgb(74.609375%, 26.93634%, 99.06311%)" offset="0.34375"/><stop stop-opacity="1" stop-color="rgb(74.29657%, 26.617432%, 99.060059%)" offset="0.351562"/><stop stop-opacity="1" stop-color="rgb(73.983765%, 26.300049%, 99.057007%)" offset="0.359375"/><stop stop-opacity="1" stop-color="rgb(73.670959%, 25.98114%, 99.053955%)" offset="0.367188"/><stop stop-opacity="1" stop-color="rgb(73.35968%, 25.662231%, 99.050903%)" offset="0.375"/><stop stop-opacity="1" stop-color="rgb(73.046875%, 25.343323%, 99.047852%)" offset="0.382812"/><stop stop-opacity="1" stop-color="rgb(72.73407%, 25.024414%, 99.0448%)" offset="0.390625"/><stop stop-opacity="1" stop-color="rgb(72.421265%, 24.705505%, 99.041748%)" offset="0.398438"/><stop stop-opacity="1" stop-color="rgb(72.109985%, 24.388123%, 99.038696%)" offset="0.40625"/><stop stop-opacity="1" stop-color="rgb(71.79718%, 24.069214%, 99.035645%)" offset="0.414062"/><stop stop-opacity="1" stop-color="rgb(71.484375%, 23.750305%, 99.032593%)" offset="0.421875"/><stop stop-opacity="1" stop-color="rgb(71.17157%, 23.431396%, 99.029541%)" offset="0.429688"/><stop stop-opacity="1" stop-color="rgb(70.860291%, 23.112488%, 99.026489%)" offset="0.4375"/><stop stop-opacity="1" stop-color="rgb(70.547485%, 22.793579%, 99.023438%)" offset="0.445312"/><stop stop-opacity="1" stop-color="rgb(70.23468%, 22.476196%, 99.01886%)" offset="0.453125"/><stop stop-opacity="1" stop-color="rgb(69.921875%, 22.157288%, 99.015808%)" offset="0.460938"/><stop stop-opacity="1" stop-color="rgb(69.610596%, 21.838379%, 99.012756%)" offset="0.46875"/><stop stop-opacity="1" stop-color="rgb(69.297791%, 21.51947%, 99.009705%)" offset="0.476562"/><stop stop-opacity="1" stop-color="rgb(68.984985%, 21.200562%, 99.006653%)" offset="0.484375"/><stop stop-opacity="1" stop-color="rgb(68.67218%, 20.881653%, 99.003601%)" offset="0.492188"/><stop stop-opacity="1" stop-color="rgb(68.360901%, 20.56427%, 99.000549%)" offset="0.5"/><stop stop-opacity="1" stop-color="rgb(68.048096%, 20.245361%, 98.997498%)" offset="0.507812"/><stop stop-opacity="1" stop-color="rgb(67.735291%, 19.926453%, 98.994446%)" offset="0.515625"/><stop stop-opacity="1" stop-color="rgb(67.422485%, 19.607544%, 98.991394%)" offset="0.523438"/><stop stop-opacity="1" stop-color="rgb(67.111206%, 19.288635%, 98.988342%)" offset="0.53125"/><stop stop-opacity="1" stop-color="rgb(66.798401%, 18.969727%, 98.985291%)" offset="0.539062"/><stop stop-opacity="1" stop-color="rgb(66.485596%, 18.652344%, 98.982239%)" offset="0.546875"/><stop stop-opacity="1" stop-color="rgb(66.174316%, 18.333435%, 98.979187%)" offset="0.554688"/><stop stop-opacity="1" stop-color="rgb(65.861511%, 18.014526%, 98.976135%)" offset="0.5625"/><stop stop-opacity="1" stop-color="rgb(65.548706%, 17.695618%, 98.973083%)" offset="0.570312"/><stop stop-opacity="1" stop-color="rgb(65.235901%, 17.376709%, 98.970032%)" offset="0.578125"/><stop stop-opacity="1" stop-color="rgb(64.924622%, 17.0578%, 98.96698%)" offset="0.585938"/><stop stop-opacity="1" stop-color="rgb(64.611816%, 16.740417%, 98.963928%)" offset="0.59375"/><stop stop-opacity="1" stop-color="rgb(64.299011%, 16.421509%, 98.960876%)" offset="0.601562"/><stop stop-opacity="1" stop-color="rgb(63.986206%, 16.1026%, 98.957825%)" offset="0.609375"/><stop stop-opacity="1" stop-color="rgb(63.674927%, 15.783691%, 98.953247%)" offset="0.617188"/><stop stop-opacity="1" stop-color="rgb(63.362122%, 15.464783%, 98.950195%)" offset="0.625"/><stop stop-opacity="1" stop-color="rgb(63.049316%, 15.145874%, 98.947144%)" offset="0.632812"/><stop stop-opacity="1" stop-color="rgb(62.736511%, 14.828491%, 98.944092%)" offset="0.640625"/><stop stop-opacity="1" stop-color="rgb(62.425232%, 14.509583%, 98.94104%)" offset="0.648438"/><stop stop-opacity="1" stop-color="rgb(62.112427%, 14.190674%, 98.937988%)" offset="0.65625"/><stop stop-opacity="1" stop-color="rgb(61.799622%, 13.871765%, 98.934937%)" offset="0.664062"/><stop stop-opacity="1" stop-color="rgb(61.486816%, 13.552856%, 98.931885%)" offset="0.671875"/><stop stop-opacity="1" stop-color="rgb(61.175537%, 13.233948%, 98.928833%)" offset="0.679688"/><stop stop-opacity="1" stop-color="rgb(60.862732%, 12.915039%, 98.925781%)" offset="0.6875"/><stop stop-opacity="1" stop-color="rgb(60.549927%, 12.597656%, 98.922729%)" offset="0.695312"/><stop stop-opacity="1" stop-color="rgb(60.237122%, 12.278748%, 98.919678%)" offset="0.703125"/><stop stop-opacity="1" stop-color="rgb(59.925842%, 11.959839%, 98.916626%)" offset="0.710938"/><stop stop-opacity="1" stop-color="rgb(59.613037%, 11.64093%, 98.913574%)" offset="0.71875"/><stop stop-opacity="1" stop-color="rgb(59.300232%, 11.322021%, 98.910522%)" offset="0.726562"/><stop stop-opacity="1" stop-color="rgb(58.987427%, 11.003113%, 98.907471%)" offset="0.734375"/><stop stop-opacity="1" stop-color="rgb(58.676147%, 10.68573%, 98.904419%)" offset="0.742188"/><stop stop-opacity="1" stop-color="rgb(58.363342%, 10.366821%, 98.901367%)" offset="0.75"/><stop stop-opacity="1" stop-color="rgb(58.050537%, 10.047913%, 98.898315%)" offset="0.757812"/><stop stop-opacity="1" stop-color="rgb(57.737732%, 9.729004%, 98.895264%)" offset="0.765625"/><stop stop-opacity="1" stop-color="rgb(57.426453%, 9.410095%, 98.892212%)" offset="0.773438"/><stop stop-opacity="1" stop-color="rgb(57.113647%, 9.091187%, 98.887634%)" offset="0.78125"/><stop stop-opacity="1" stop-color="rgb(56.800842%, 8.773804%, 98.884583%)" offset="0.789062"/><stop stop-opacity="1" stop-color="rgb(56.488037%, 8.454895%, 98.881531%)" offset="0.796875"/><stop stop-opacity="1" stop-color="rgb(56.176758%, 8.135986%, 98.878479%)" offset="0.804688"/><stop stop-opacity="1" stop-color="rgb(55.863953%, 7.817078%, 98.875427%)" offset="0.8125"/><stop stop-opacity="1" stop-color="rgb(55.551147%, 7.498169%, 98.872375%)" offset="0.820312"/><stop stop-opacity="1" stop-color="rgb(55.239868%, 7.17926%, 98.869324%)" offset="0.828125"/><stop stop-opacity="1" stop-color="rgb(54.927063%, 6.861877%, 98.866272%)" offset="0.835938"/><stop stop-opacity="1" stop-color="rgb(54.614258%, 6.542969%, 98.86322%)" offset="0.84375"/><stop stop-opacity="1" stop-color="rgb(54.301453%, 6.22406%, 98.860168%)" offset="0.851562"/><stop stop-opacity="1" stop-color="rgb(53.990173%, 5.905151%, 98.857117%)" offset="0.859375"/><stop stop-opacity="1" stop-color="rgb(53.677368%, 5.586243%, 98.854065%)" offset="0.867188"/><stop stop-opacity="1" stop-color="rgb(53.364563%, 5.267334%, 98.851013%)" offset="0.875"/><stop stop-opacity="1" stop-color="rgb(53.051758%, 4.949951%, 98.847961%)" offset="0.882813"/><stop stop-opacity="1" stop-color="rgb(52.740479%, 4.631042%, 98.84491%)" offset="0.890625"/><stop stop-opacity="1" stop-color="rgb(52.427673%, 4.312134%, 98.841858%)" offset="0.898438"/><stop stop-opacity="1" stop-color="rgb(52.114868%, 3.993225%, 98.838806%)" offset="0.90625"/><stop stop-opacity="1" stop-color="rgb(51.802063%, 3.674316%, 98.835754%)" offset="0.914063"/><stop stop-opacity="1" stop-color="rgb(51.490784%, 3.355408%, 98.832703%)" offset="0.921875"/><stop stop-opacity="1" stop-color="rgb(51.177979%, 3.038025%, 98.829651%)" offset="0.929688"/><stop stop-opacity="1" stop-color="rgb(50.865173%, 2.719116%, 98.826599%)" offset="0.9375"/><stop stop-opacity="1" stop-color="rgb(50.552368%, 2.400208%, 98.822021%)" offset="0.945313"/><stop stop-opacity="1" stop-color="rgb(50.241089%, 2.081299%, 98.81897%)" offset="0.953125"/><stop stop-opacity="1" stop-color="rgb(49.928284%, 1.76239%, 98.815918%)" offset="0.960938"/><stop stop-opacity="1" stop-color="rgb(49.615479%, 1.443481%, 98.812866%)" offset="0.96875"/><stop stop-opacity="1" stop-color="rgb(49.302673%, 1.124573%, 98.809814%)" offset="0.976562"/><stop stop-opacity="1" stop-color="rgb(48.991394%, 0.80719%, 98.806763%)" offset="0.984375"/><stop stop-opacity="1" stop-color="rgb(48.678589%, 0.488281%, 98.803711%)" offset="0.992188"/><stop stop-opacity="1" stop-color="rgb(48.365784%, 0.169373%, 98.800659%)" offset="1"/></linearGradient></defs><path fill="#ffffff" d="M 94.390625 51.445312 C 91.96875 51.445312 89.742188 50.878906 87.714844 49.738281 C 85.6875 48.601562 84.078125 47.027344 82.894531 45.023438 C 81.707031 42.996094 81.113281 40.707031 81.113281 38.15625 C 81.113281 35.632812 81.707031 33.367188 82.894531 31.363281 C 84.078125 29.332031 85.6875 27.75 87.714844 26.609375 C 89.742188 25.472656 91.96875 24.902344 94.390625 24.902344 C 96.839844 24.902344 99.0625 25.472656 101.066406 26.609375 C 103.09375 27.75 104.6875 29.332031 105.851562 31.363281 C 107.039062 33.367188 107.632812 35.632812 107.632812 38.15625 C 107.632812 40.707031 107.039062 42.996094 105.851562 45.023438 C 104.6875 47.027344 103.09375 48.601562 101.066406 49.738281 C 99.039062 50.878906 96.8125 51.445312 94.390625 51.445312 Z M 94.390625 46.804688 C 95.949219 46.804688 97.320312 46.460938 98.507812 45.765625 C 99.695312 45.050781 100.621094 44.035156 101.289062 42.722656 C 101.957031 41.410156 102.289062 39.890625 102.289062 38.15625 C 102.289062 36.421875 101.957031 34.914062 101.289062 33.628906 C 100.621094 32.316406 99.695312 31.3125 98.507812 30.621094 C 97.320312 29.925781 95.949219 29.582031 94.390625 29.582031 C 92.832031 29.582031 91.449219 29.925781 90.234375 30.621094 C 89.050781 31.3125 88.121094 32.316406 87.453125 33.628906 C 86.785156 34.914062 86.453125 36.421875 86.453125 38.15625 C 86.453125 39.890625 86.785156 41.410156 87.453125 42.722656 C 88.121094 44.035156 89.050781 45.050781 90.234375 45.765625 C 91.449219 46.460938 92.832031 46.804688 94.390625 46.804688 Z M 114.832031 33.628906 C 115.5 32.636719 116.414062 31.832031 117.578125 31.214844 C 118.761719 30.59375 120.109375 30.285156 121.621094 30.285156 C 123.375 30.285156 124.957031 30.71875 126.367188 31.585938 C 127.800781 32.453125 128.925781 33.6875 129.742188 35.296875 C 130.582031 36.882812 131.003906 38.726562 131.003906 40.828125 C 131.003906 42.933594 130.582031 44.800781 129.742188 46.433594 C 128.925781 48.042969 127.800781 49.292969 126.367188 50.183594 C 124.957031 51.074219 123.375 51.519531 121.621094 51.519531 C 120.085938 51.519531 118.738281 51.222656 117.578125 50.628906 C 116.4375 50.011719 115.523438 49.21875 114.832031 48.253906 L 114.832031 51.1875 L 109.640625 51.1875 L 109.640625 23.714844 L 114.832031 23.714844 Z M 125.699219 40.828125 C 125.699219 39.59375 125.4375 38.527344 124.921875 37.636719 C 124.425781 36.722656 123.757812 36.027344 122.917969 35.558594 C 122.101562 35.085938 121.210938 34.851562 120.246094 34.851562 C 119.308594 34.851562 118.417969 35.101562 117.578125 35.59375 C 116.761719 36.066406 116.09375 36.757812 115.574219 37.671875 C 115.078125 38.589844 114.832031 39.667969 114.832031 40.902344 C 114.832031 42.140625 115.078125 43.21875 115.574219 44.132812 C 116.09375 45.050781 116.761719 45.753906 117.578125 46.25 C 118.417969 46.71875 119.308594 46.953125 120.246094 46.953125 C 121.210938 46.953125 122.101562 46.707031 122.917969 46.210938 C 123.757812 45.71875 124.425781 45.011719 124.921875 44.097656 C 125.4375 43.179688 125.699219 42.089844 125.699219 40.828125 Z M 152.320312 30.621094 L 152.320312 51.1875 L 147.089844 51.1875 L 147.089844 48.589844 C 146.421875 49.480469 145.542969 50.183594 144.457031 50.703125 C 143.394531 51.199219 142.230469 51.445312 140.96875 51.445312 C 139.363281 51.445312 137.941406 51.113281 136.703125 50.445312 C 135.46875 49.75 134.492188 48.75 133.773438 47.4375 C 133.082031 46.101562 132.734375 44.515625 132.734375 42.6875 L 132.734375 30.621094 L 137.929688 30.621094 L 137.929688 41.941406 C 137.929688 43.578125 138.335938 44.839844 139.152344 45.730469 C 139.96875 46.597656 141.082031 47.027344 142.492188 47.027344 C 143.925781 47.027344 145.050781 46.597656 145.867188 45.730469 C 146.679688 44.839844 147.089844 43.578125 147.089844 41.941406 L 147.089844 30.621094 Z M 160.78125 33.589844 C 161.449219 32.648438 162.363281 31.871094 163.523438 31.25 C 164.710938 30.609375 166.058594 30.285156 167.566406 30.285156 C 169.324219 30.285156 170.90625 30.71875 172.316406 31.585938 C 173.75 32.453125 174.875 33.6875 175.691406 35.296875 C 176.53125 36.882812 176.953125 38.726562 176.953125 40.828125 C 176.953125 42.933594 176.53125 44.800781 175.691406 46.433594 C 174.875 48.042969 173.75 49.292969 172.316406 50.183594 C 170.90625 51.074219 169.324219 51.519531 167.566406 51.519531 C 166.058594 51.519531 164.722656 51.210938 163.5625 50.59375 C 162.425781 49.972656 161.496094 49.195312 160.78125 48.253906 L 160.78125 60.988281 L 155.589844 60.988281 L 155.589844 30.621094 L 160.78125 30.621094 Z M 171.648438 40.828125 C 171.648438 39.59375 171.386719 38.527344 170.867188 37.636719 C 170.375 36.722656 169.707031 36.027344 168.867188 35.558594 C 168.050781 35.085938 167.160156 34.851562 166.195312 34.851562 C 165.253906 34.851562 164.363281 35.101562 163.523438 35.59375 C 162.710938 36.066406 162.042969 36.757812 161.523438 37.671875 C 161.027344 38.589844 160.78125 39.667969 160.78125 40.902344 C 160.78125 42.140625 161.027344 43.21875 161.523438 44.132812 C 162.042969 45.050781 162.710938 45.753906 163.523438 46.25 C 164.363281 46.71875 165.253906 46.953125 166.195312 46.953125 C 167.160156 46.953125 168.050781 46.707031 168.867188 46.210938 C 169.707031 45.71875 170.375 45.011719 170.867188 44.097656 C 171.386719 43.179688 171.648438 42.089844 171.648438 40.828125 Z M 197.96875 40.457031 C 197.96875 41.199219 197.921875 41.867188 197.820312 42.460938 L 182.800781 42.460938 C 182.925781 43.949219 183.445312 45.109375 184.359375 45.953125 C 185.273438 46.792969 186.398438 47.214844 187.734375 47.214844 C 189.664062 47.214844 191.035156 46.386719 191.851562 44.726562 L 197.449219 44.726562 C 196.859375 46.707031 195.722656 48.339844 194.039062 49.628906 C 192.359375 50.890625 190.292969 51.519531 187.84375 51.519531 C 185.867188 51.519531 184.085938 51.089844 182.503906 50.222656 C 180.945312 49.332031 179.722656 48.082031 178.832031 46.472656 C 177.96875 44.863281 177.535156 43.007812 177.535156 40.902344 C 177.535156 38.773438 177.96875 36.90625 178.832031 35.296875 C 179.699219 33.6875 180.910156 32.453125 182.46875 31.585938 C 184.023438 30.71875 185.816406 30.285156 187.84375 30.285156 C 189.796875 30.285156 191.542969 30.707031 193.074219 31.546875 C 194.632812 32.390625 195.832031 33.589844 196.671875 35.148438 C 197.539062 36.683594 197.96875 38.453125 197.96875 40.457031 Z M 192.59375 38.972656 C 192.570312 37.636719 192.085938 36.574219 191.144531 35.78125 C 190.207031 34.964844 189.058594 34.554688 187.695312 34.554688 C 186.410156 34.554688 185.324219 34.953125 184.433594 35.742188 C 183.566406 36.511719 183.035156 37.585938 182.839844 38.972656 Z M 198.570312 40.828125 C 198.570312 38.75 198.976562 36.90625 199.792969 35.296875 C 200.636719 33.6875 201.773438 32.453125 203.207031 31.585938 C 204.640625 30.71875 206.234375 30.285156 207.992188 30.285156 C 209.324219 30.285156 210.601562 30.582031 211.8125 31.175781 C 213.023438 31.746094 213.988281 32.511719 214.703125 33.480469 L 214.703125 23.714844 L 219.96875 23.714844 L 219.96875 51.1875 L 214.703125 51.1875 L 214.703125 48.144531 C 214.0625 49.15625 213.160156 49.972656 211.996094 50.59375 C 210.835938 51.210938 209.488281 51.519531 207.953125 51.519531 C 206.222656 51.519531 204.640625 51.074219 203.207031 50.183594 C 201.773438 49.292969 200.636719 48.042969 199.792969 46.433594 C 198.976562 44.800781 198.570312 42.933594 198.570312 40.828125 Z M 214.742188 40.902344 C 214.742188 39.640625 214.496094 38.566406 214 37.671875 C 213.503906 36.757812 212.835938 36.066406 211.996094 35.59375 C 211.15625 35.101562 210.253906 34.851562 209.289062 34.851562 C 208.324219 34.851562 207.433594 35.085938 206.617188 35.558594 C 205.800781 36.027344 205.136719 36.722656 204.617188 37.636719 C 204.121094 38.527344 203.875 39.59375 203.875 40.828125 C 203.875 42.066406 204.121094 43.15625 204.617188 44.097656 C 205.136719 45.011719 205.800781 45.71875 206.617188 46.210938 C 207.460938 46.707031 208.351562 46.953125 209.289062 46.953125 C 210.253906 46.953125 211.15625 46.71875 211.996094 46.25 C 212.835938 45.753906 213.503906 45.0625 214 44.171875 C 214.496094 43.253906 214.742188 42.164062 214.742188 40.902344 Z M 225.820312 28.167969 C 224.90625 28.167969 224.140625 27.886719 223.523438 27.316406 C 222.929688 26.722656 222.632812 25.992188 222.632812 25.125 C 222.632812 24.257812 222.929688 23.542969 223.523438 22.972656 C 224.140625 22.378906 224.90625 22.082031 225.820312 22.082031 C 226.738281 22.082031 227.492188 22.378906 228.082031 22.972656 C 228.703125 23.542969 229.011719 24.257812 229.011719 25.125 C 229.011719 25.992188 228.703125 26.722656 228.082031 27.316406 C 227.492188 27.886719 226.738281 28.167969 225.820312 28.167969 Z M 228.378906 30.621094 L 228.378906 51.1875 L 223.1875 51.1875 L 223.1875 30.621094 Z M 230.320312 40.828125 C 230.320312 38.75 230.730469 36.90625 231.546875 35.296875 C 232.386719 33.6875 233.511719 32.453125 234.921875 31.585938 C 236.355469 30.71875 237.949219 30.285156 239.703125 30.285156 C 241.238281 30.285156 242.570312 30.59375 243.710938 31.214844 C 244.871094 31.832031 245.800781 32.613281 246.492188 33.554688 L 246.492188 30.621094 L 251.722656 30.621094 L 251.722656 51.1875 L 246.492188 51.1875 L 246.492188 48.179688 C 245.824219 49.144531 244.898438 49.949219 243.710938 50.59375 C 242.546875 51.210938 241.199219 51.519531 239.667969 51.519531 C 237.9375 51.519531 236.355469 51.074219 234.921875 50.183594 C 233.511719 49.292969 232.386719 48.042969 231.546875 46.433594 C 230.730469 44.800781 230.320312 42.933594 230.320312 40.828125 Z M 246.492188 40.902344 C 246.492188 39.640625 246.242188 38.566406 245.75 37.671875 C 245.257812 36.757812 244.589844 36.066406 243.746094 35.59375 C 242.90625 35.101562 242.003906 34.851562 241.039062 34.851562 C 240.074219 34.851562 239.183594 35.085938 238.371094 35.558594 C 237.554688 36.027344 236.886719 36.722656 236.367188 37.636719 C 235.871094 38.527344 235.625 39.59375 235.625 40.828125 C 235.625 42.066406 235.871094 43.15625 236.367188 44.097656 C 236.886719 45.011719 237.554688 45.71875 238.371094 46.210938 C 239.210938 46.707031 240.101562 46.953125 241.039062 46.953125 C 242.003906 46.953125 242.90625 46.71875 243.746094 46.25 C 244.589844 45.753906 245.257812 45.0625 245.75 44.171875 C 246.242188 43.253906 246.492188 42.164062 246.492188 40.902344 Z M 246.492188 40.902344 " fill-opacity="1" fill-rule="nonzero"/><g clip-path="url(#id1)"><g clip-path="url(#id2)"><path fill="url(#id3)" d="M 0.339844 0.804688 L 0.339844 74.308594 L 66.566406 74.308594 L 66.566406 0.804688 Z M 0.339844 0.804688 " fill-rule="nonzero"/></g></g></svg>