<svg xmlns="http://www.w3.org/2000/svg" xmlns:xlink="http://www.w3.org/1999/xlink" width="53" zoomAndPan="magnify" viewBox="0 0 39.75 36.000001" height="48" preserveAspectRatio="xMidYMid meet" version="1.0"><defs><clipPath id="id1"><path d="M 0.414062 2.816406 L 15.097656 2.816406 L 15.097656 32.1875 L 0.414062 32.1875 Z M 0.414062 2.816406 " clip-rule="nonzero"/></clipPath><clipPath id="id2"><path d="M 24.691406 2.816406 L 39.089844 2.816406 L 39.089844 32.1875 L 24.691406 32.1875 Z M 24.691406 2.816406 " clip-rule="nonzero"/></clipPath></defs><g clip-path="url(#id1)"><path fill="#c1dc83" d="M 15.0625 17.5 L 15.0625 2.8125 L 0.445312 2.8125 L 0.445312 32.1875 Z M 15.0625 17.5 " fill-opacity="1" fill-rule="nonzero"/><path fill="#0ac05e" d="M 15.0625 2.8125 L 0.445312 2.8125 L 0.445312 32.1875 L 15.0625 17.5 Z M 15.0625 2.8125 " fill-opacity="1" fill-rule="nonzero"/></g><g clip-path="url(#id2)"><path fill="#c1dc83" d="M 39.339844 17.5 L 39.339844 2.8125 L 24.722656 2.8125 L 24.722656 32.1875 Z M 39.339844 17.5 " fill-opacity="1" fill-rule="nonzero"/><path fill="#0ac05e" d="M 39.339844 2.8125 L 24.722656 2.8125 L 24.722656 32.1875 L 39.339844 17.5 Z M 39.339844 2.8125 " fill-opacity="1" fill-rule="nonzero"/></g></svg>